<svg id="visual" viewBox="0 0 900 600" width="900" height="600" xmlns="http://www.w3.org/2000/svg" xmlns:xlink="http://www.w3.org/1999/xlink" version="1.1"><g stroke-width="1" stroke-linejoin="bevel"><path d="M492 278L410 189L407 265Z" fill="#a95000" stroke="#a95000"></path><path d="M492 278L489 174L410 189Z" fill="#b45300" stroke="#b45300"></path><path d="M479 73L371 125L410 189Z" fill="#cc5900" stroke="#cc5900"></path><path d="M410 189L308 198L407 265Z" fill="#f26100" stroke="#f26100"></path><path d="M371 125L308 198L410 189Z" fill="#a95000" stroke="#a95000"></path><path d="M489 174L479 73L410 189Z" fill="#ff6300" stroke="#ff6300"></path><path d="M492 278L618 235L489 174Z" fill="#b45300" stroke="#b45300"></path><path d="M489 174L562 62L479 73Z" fill="#b45300" stroke="#b45300"></path><path d="M308 373L430 407L407 265Z" fill="#ff6300" stroke="#ff6300"></path><path d="M407 265L430 407L492 278Z" fill="#b45300" stroke="#b45300"></path><path d="M492 278L621 303L618 235Z" fill="#934900" stroke="#934900"></path><path d="M507 413L621 303L492 278Z" fill="#b45300" stroke="#b45300"></path><path d="M430 407L507 413L492 278Z" fill="#d85c00" stroke="#d85c00"></path><path d="M308 198L277 310L407 265Z" fill="#b45300" stroke="#b45300"></path><path d="M618 235L562 62L489 174Z" fill="#f26100" stroke="#f26100"></path><path d="M372 0L335 63L371 125Z" fill="#e55e00" stroke="#e55e00"></path><path d="M371 125L335 63L308 198Z" fill="#e55e00" stroke="#e55e00"></path><path d="M167 213L200 324L277 310Z" fill="#934900" stroke="#934900"></path><path d="M372 0L371 125L479 73Z" fill="#9e4c00" stroke="#9e4c00"></path><path d="M277 310L308 373L407 265Z" fill="#9e4c00" stroke="#9e4c00"></path><path d="M562 62L493 0L479 73Z" fill="#d85c00" stroke="#d85c00"></path><path d="M507 413L600 416L621 303Z" fill="#cc5900" stroke="#cc5900"></path><path d="M493 0L372 0L479 73Z" fill="#d85c00" stroke="#d85c00"></path><path d="M681 381L685 319L621 303Z" fill="#ff6300" stroke="#ff6300"></path><path d="M621 303L685 319L618 235Z" fill="#e55e00" stroke="#e55e00"></path><path d="M618 235L694 162L562 62Z" fill="#884500" stroke="#884500"></path><path d="M685 319L694 162L618 235Z" fill="#cc5900" stroke="#cc5900"></path><path d="M562 62L566 0L493 0Z" fill="#f26100" stroke="#f26100"></path><path d="M693 0L566 0L562 62Z" fill="#cc5900" stroke="#cc5900"></path><path d="M430 407L485 492L507 413Z" fill="#884500" stroke="#884500"></path><path d="M507 413L604 481L600 416Z" fill="#d85c00" stroke="#d85c00"></path><path d="M365 537L485 492L430 407Z" fill="#884500" stroke="#884500"></path><path d="M791 179L708 135L694 162Z" fill="#f26100" stroke="#f26100"></path><path d="M694 162L708 135L562 62Z" fill="#a95000" stroke="#a95000"></path><path d="M600 416L681 381L621 303Z" fill="#9e4c00" stroke="#9e4c00"></path><path d="M685 319L774 292L694 162Z" fill="#c05600" stroke="#c05600"></path><path d="M604 481L681 381L600 416Z" fill="#d85c00" stroke="#d85c00"></path><path d="M167 213L277 310L308 198Z" fill="#e55e00" stroke="#e55e00"></path><path d="M277 310L236 421L308 373Z" fill="#9e4c00" stroke="#9e4c00"></path><path d="M308 373L294 472L430 407Z" fill="#c05600" stroke="#c05600"></path><path d="M264 0L203 95L335 63Z" fill="#d85c00" stroke="#d85c00"></path><path d="M335 63L203 95L308 198Z" fill="#9e4c00" stroke="#9e4c00"></path><path d="M203 95L167 213L308 198Z" fill="#c05600" stroke="#c05600"></path><path d="M200 324L236 421L277 310Z" fill="#b45300" stroke="#b45300"></path><path d="M236 421L294 472L308 373Z" fill="#cc5900" stroke="#cc5900"></path><path d="M485 492L604 481L507 413Z" fill="#b45300" stroke="#b45300"></path><path d="M372 0L264 0L335 63Z" fill="#884500" stroke="#884500"></path><path d="M260 600L365 537L294 472Z" fill="#ff6300" stroke="#ff6300"></path><path d="M294 472L365 537L430 407Z" fill="#b45300" stroke="#b45300"></path><path d="M485 492L489 600L604 481Z" fill="#f26100" stroke="#f26100"></path><path d="M264 0L230 0L203 95Z" fill="#b45300" stroke="#b45300"></path><path d="M95 101L84 235L167 213Z" fill="#b45300" stroke="#b45300"></path><path d="M792 404L774 292L681 381Z" fill="#f26100" stroke="#f26100"></path><path d="M681 381L774 292L685 319Z" fill="#e55e00" stroke="#e55e00"></path><path d="M798 102L693 0L708 135Z" fill="#b45300" stroke="#b45300"></path><path d="M708 135L693 0L562 62Z" fill="#e55e00" stroke="#e55e00"></path><path d="M774 292L791 179L694 162Z" fill="#9e4c00" stroke="#9e4c00"></path><path d="M80 291L131 379L200 324Z" fill="#e55e00" stroke="#e55e00"></path><path d="M200 324L131 379L236 421Z" fill="#e55e00" stroke="#e55e00"></path><path d="M236 421L229 514L294 472Z" fill="#c05600" stroke="#c05600"></path><path d="M121 487L229 514L236 421Z" fill="#cc5900" stroke="#cc5900"></path><path d="M791 179L798 102L708 135Z" fill="#ff6300" stroke="#ff6300"></path><path d="M167 213L80 291L200 324Z" fill="#c05600" stroke="#c05600"></path><path d="M95 101L167 213L203 95Z" fill="#9e4c00" stroke="#9e4c00"></path><path d="M399 600L485 492L365 537Z" fill="#a95000" stroke="#a95000"></path><path d="M399 600L489 600L485 492Z" fill="#ff6300" stroke="#ff6300"></path><path d="M260 600L399 600L365 537Z" fill="#f26100" stroke="#f26100"></path><path d="M720 524L681 381L604 481Z" fill="#d85c00" stroke="#d85c00"></path><path d="M720 524L792 404L681 381Z" fill="#f26100" stroke="#f26100"></path><path d="M774 292L900 189L791 179Z" fill="#f26100" stroke="#f26100"></path><path d="M900 65L826 0L798 102Z" fill="#884500" stroke="#884500"></path><path d="M84 235L80 291L167 213Z" fill="#884500" stroke="#884500"></path><path d="M137 0L95 101L203 95Z" fill="#e55e00" stroke="#e55e00"></path><path d="M230 0L137 0L203 95Z" fill="#cc5900" stroke="#cc5900"></path><path d="M629 600L720 524L604 481Z" fill="#c05600" stroke="#c05600"></path><path d="M489 600L629 600L604 481Z" fill="#b45300" stroke="#b45300"></path><path d="M209 600L260 600L229 514Z" fill="#f26100" stroke="#f26100"></path><path d="M229 514L260 600L294 472Z" fill="#cc5900" stroke="#cc5900"></path><path d="M0 377L121 487L131 379Z" fill="#d85c00" stroke="#d85c00"></path><path d="M131 379L121 487L236 421Z" fill="#884500" stroke="#884500"></path><path d="M900 189L798 102L791 179Z" fill="#f26100" stroke="#f26100"></path><path d="M798 102L826 0L693 0Z" fill="#c05600" stroke="#c05600"></path><path d="M900 319L900 189L774 292Z" fill="#ff6300" stroke="#ff6300"></path><path d="M134 600L209 600L229 514Z" fill="#a95000" stroke="#a95000"></path><path d="M792 404L900 319L774 292Z" fill="#f26100" stroke="#f26100"></path><path d="M900 369L900 319L792 404Z" fill="#d85c00" stroke="#d85c00"></path><path d="M629 600L720 600L720 524Z" fill="#e55e00" stroke="#e55e00"></path><path d="M720 524L838 477L792 404Z" fill="#d85c00" stroke="#d85c00"></path><path d="M826 600L838 477L720 524Z" fill="#cc5900" stroke="#cc5900"></path><path d="M0 130L84 235L95 101Z" fill="#f26100" stroke="#f26100"></path><path d="M0 130L0 204L84 235Z" fill="#b45300" stroke="#b45300"></path><path d="M84 235L0 284L80 291Z" fill="#e55e00" stroke="#e55e00"></path><path d="M80 291L0 377L131 379Z" fill="#d85c00" stroke="#d85c00"></path><path d="M0 204L0 284L84 235Z" fill="#e55e00" stroke="#e55e00"></path><path d="M838 477L900 369L792 404Z" fill="#f26100" stroke="#f26100"></path><path d="M0 0L0 130L95 101Z" fill="#a95000" stroke="#a95000"></path><path d="M900 189L900 65L798 102Z" fill="#a95000" stroke="#a95000"></path><path d="M0 284L0 377L80 291Z" fill="#e55e00" stroke="#e55e00"></path><path d="M121 487L134 600L229 514Z" fill="#934900" stroke="#934900"></path><path d="M0 516L134 600L121 487Z" fill="#e55e00" stroke="#e55e00"></path><path d="M900 65L900 0L826 0Z" fill="#f26100" stroke="#f26100"></path><path d="M137 0L0 0L95 101Z" fill="#d85c00" stroke="#d85c00"></path><path d="M720 600L826 600L720 524Z" fill="#a95000" stroke="#a95000"></path><path d="M838 477L900 534L900 369Z" fill="#a95000" stroke="#a95000"></path><path d="M826 600L900 534L838 477Z" fill="#9e4c00" stroke="#9e4c00"></path><path d="M0 377L0 516L121 487Z" fill="#a95000" stroke="#a95000"></path><path d="M826 600L900 600L900 534Z" fill="#9e4c00" stroke="#9e4c00"></path><path d="M0 516L0 600L134 600Z" fill="#ff6300" stroke="#ff6300"></path></g></svg>