<svg id="visual" viewBox="0 0 1920 1080" width="1920" height="1080" xmlns="http://www.w3.org/2000/svg" xmlns:xlink="http://www.w3.org/1999/xlink" version="1.1"><g stroke-width="1" stroke-linejoin="bevel"><path d="M838.3 500L825.3 377L628 367Z" fill="#00101c" stroke="#00101c"></path><path d="M628 367L607 576L838.3 500Z" fill="#00101c" stroke="#00101c"></path><path d="M825.3 377L672 215L628 367Z" fill="#0b2f47" stroke="#0b2f47"></path><path d="M607 576L846.3 716L838.3 500Z" fill="#00101c" stroke="#00101c"></path><path d="M607 576L673 756L846.3 716Z" fill="#00101c" stroke="#00101c"></path><path d="M422.7 336L419.7 534L628 367Z" fill="#00101c" stroke="#00101c"></path><path d="M628 367L419.7 534L607 576Z" fill="#0b2f47" stroke="#0b2f47"></path><path d="M607 576L452.7 713L673 756Z" fill="#0081bc" stroke="#0081bc"></path><path d="M672 215L422.7 336L628 367Z" fill="#00101c" stroke="#00101c"></path><path d="M1029.7 184L886.3 168L825.3 377Z" fill="#0a6899" stroke="#0a6899"></path><path d="M825.3 377L886.3 168L672 215Z" fill="#0674aa" stroke="#0674aa"></path><path d="M1085.7 389L825.3 377L838.3 500Z" fill="#0b2f47" stroke="#0b2f47"></path><path d="M1087.7 522L1085.7 389L838.3 500Z" fill="#00101c" stroke="#00101c"></path><path d="M1048.7 681L1087.7 522L838.3 500Z" fill="#071b29" stroke="#071b29"></path><path d="M419.7 534L452.7 713L607 576Z" fill="#0c5c87" stroke="#0c5c87"></path><path d="M1058.7 911L1048.7 681L846.3 716Z" fill="#092538" stroke="#092538"></path><path d="M846.3 716L1048.7 681L838.3 500Z" fill="#0d5076" stroke="#0d5076"></path><path d="M1085.7 389L1029.7 184L825.3 377Z" fill="#071b29" stroke="#071b29"></path><path d="M452.7 713L629 886L673 756Z" fill="#0d5076" stroke="#0d5076"></path><path d="M673 756L854.3 928L846.3 716Z" fill="#0c3a56" stroke="#0c3a56"></path><path d="M432.7 0L387.7 147L672 215Z" fill="#0674aa" stroke="#0674aa"></path><path d="M672 215L387.7 147L422.7 336Z" fill="#092538" stroke="#092538"></path><path d="M422.7 336L203.3 355L419.7 534Z" fill="#0d5076" stroke="#0d5076"></path><path d="M872.3 0L669 0L886.3 168Z" fill="#0081bc" stroke="#0081bc"></path><path d="M886.3 168L669 0L672 215Z" fill="#00101c" stroke="#00101c"></path><path d="M1031.7 0L872.3 0L886.3 168Z" fill="#0d5076" stroke="#0d5076"></path><path d="M629 886L854.3 928L673 756Z" fill="#071b29" stroke="#071b29"></path><path d="M1087.7 522L1242 397L1085.7 389Z" fill="#00101c" stroke="#00101c"></path><path d="M1085.7 389L1267 152L1029.7 184Z" fill="#0c5c87" stroke="#0c5c87"></path><path d="M1029.7 184L1031.7 0L886.3 168Z" fill="#0d4566" stroke="#0d4566"></path><path d="M1292 502L1242 397L1087.7 522Z" fill="#0c3a56" stroke="#0c3a56"></path><path d="M182.3 209L203.3 355L422.7 336Z" fill="#0d4566" stroke="#0d4566"></path><path d="M419.7 534L193.3 688L452.7 713Z" fill="#00101c" stroke="#00101c"></path><path d="M669 0L432.7 0L672 215Z" fill="#0d4566" stroke="#0d4566"></path><path d="M387.7 147L182.3 209L422.7 336Z" fill="#0674aa" stroke="#0674aa"></path><path d="M1267 152L1031.7 0L1029.7 184Z" fill="#0d4566" stroke="#0d4566"></path><path d="M203.3 355L180.3 516L419.7 534Z" fill="#00101c" stroke="#00101c"></path><path d="M452.7 713L403.7 903L629 886Z" fill="#00101c" stroke="#00101c"></path><path d="M193.3 688L403.7 903L452.7 713Z" fill="#092538" stroke="#092538"></path><path d="M629 886L610 1080L854.3 928Z" fill="#00101c" stroke="#00101c"></path><path d="M854.3 928L1058.7 911L846.3 716Z" fill="#0081bc" stroke="#0081bc"></path><path d="M1278 741L1292 502L1087.7 522Z" fill="#0d4566" stroke="#0d4566"></path><path d="M1278 741L1087.7 522L1048.7 681Z" fill="#0674aa" stroke="#0674aa"></path><path d="M180.3 516L193.3 688L419.7 534Z" fill="#0d5076" stroke="#0d5076"></path><path d="M233.3 0L182.3 209L387.7 147Z" fill="#0c3a56" stroke="#0c3a56"></path><path d="M203.3 355L0 361L180.3 516Z" fill="#0d5076" stroke="#0d5076"></path><path d="M1242 397L1267 152L1085.7 389Z" fill="#092538" stroke="#092538"></path><path d="M1485.3 159L1267 152L1242 397Z" fill="#092538" stroke="#092538"></path><path d="M1058.7 911L1278 741L1048.7 681Z" fill="#0c3a56" stroke="#0c3a56"></path><path d="M403.7 903L610 1080L629 886Z" fill="#071b29" stroke="#071b29"></path><path d="M854.3 928L852.3 1080L1058.7 911Z" fill="#071b29" stroke="#071b29"></path><path d="M610 1080L852.3 1080L854.3 928Z" fill="#0674aa" stroke="#0674aa"></path><path d="M1058.7 911L1254 911L1278 741Z" fill="#0b2f47" stroke="#0b2f47"></path><path d="M432.7 0L233.3 0L387.7 147Z" fill="#0b2f47" stroke="#0b2f47"></path><path d="M1267 152L1247 0L1031.7 0Z" fill="#0674aa" stroke="#0674aa"></path><path d="M403.7 903L432.7 1080L610 1080Z" fill="#0081bc" stroke="#0081bc"></path><path d="M196.3 1080L432.7 1080L403.7 903Z" fill="#092538" stroke="#092538"></path><path d="M0 759L173.3 882L193.3 688Z" fill="#0d5076" stroke="#0d5076"></path><path d="M193.3 688L173.3 882L403.7 903Z" fill="#0d4566" stroke="#0d4566"></path><path d="M0 544L193.3 688L180.3 516Z" fill="#0b2f47" stroke="#0b2f47"></path><path d="M1091.7 1080L1254 911L1058.7 911Z" fill="#092538" stroke="#092538"></path><path d="M0 163L0 361L182.3 209Z" fill="#092538" stroke="#092538"></path><path d="M182.3 209L0 361L203.3 355Z" fill="#0b2f47" stroke="#0b2f47"></path><path d="M0 361L0 544L180.3 516Z" fill="#0c5c87" stroke="#0c5c87"></path><path d="M852.3 1080L1091.7 1080L1058.7 911Z" fill="#0081bc" stroke="#0081bc"></path><path d="M1278 741L1470.3 549L1292 502Z" fill="#0d5076" stroke="#0d5076"></path><path d="M1292 502L1527.3 375L1242 397Z" fill="#071b29" stroke="#071b29"></path><path d="M1267 152L1476.3 0L1247 0Z" fill="#0a6899" stroke="#0a6899"></path><path d="M1524.3 753L1470.3 549L1278 741Z" fill="#0b2f47" stroke="#0b2f47"></path><path d="M233.3 0L0 163L182.3 209Z" fill="#0c3a56" stroke="#0c3a56"></path><path d="M0 544L0 759L193.3 688Z" fill="#071b29" stroke="#071b29"></path><path d="M173.3 882L196.3 1080L403.7 903Z" fill="#0081bc" stroke="#0081bc"></path><path d="M1470.3 549L1527.3 375L1292 502Z" fill="#0a6899" stroke="#0a6899"></path><path d="M1527.3 375L1485.3 159L1242 397Z" fill="#0a6899" stroke="#0a6899"></path><path d="M1091.7 1080L1244 1080L1254 911Z" fill="#0081bc" stroke="#0081bc"></path><path d="M1485.3 880L1524.3 753L1278 741Z" fill="#0d4566" stroke="#0d4566"></path><path d="M0 1080L196.3 1080L173.3 882Z" fill="#0674aa" stroke="#0674aa"></path><path d="M0 759L0 876L173.3 882Z" fill="#0a6899" stroke="#0a6899"></path><path d="M233.3 0L0 0L0 163Z" fill="#0081bc" stroke="#0081bc"></path><path d="M1485.3 880L1278 741L1254 911Z" fill="#0a6899" stroke="#0a6899"></path><path d="M1680.7 564L1682.7 361L1527.3 375Z" fill="#0d5076" stroke="#0d5076"></path><path d="M1516.3 1080L1485.3 880L1254 911Z" fill="#0081bc" stroke="#0081bc"></path><path d="M1691.7 146L1476.3 0L1485.3 159Z" fill="#0674aa" stroke="#0674aa"></path><path d="M1485.3 159L1476.3 0L1267 152Z" fill="#0081bc" stroke="#0081bc"></path><path d="M0 876L0 1080L173.3 882Z" fill="#0081bc" stroke="#0081bc"></path><path d="M1680.7 564L1527.3 375L1470.3 549Z" fill="#0d5076" stroke="#0d5076"></path><path d="M1527.3 375L1682.7 361L1485.3 159Z" fill="#092538" stroke="#092538"></path><path d="M1680.7 564L1470.3 549L1524.3 753Z" fill="#00101c" stroke="#00101c"></path><path d="M1705.7 726L1680.7 564L1524.3 753Z" fill="#0d5076" stroke="#0d5076"></path><path d="M1244 1080L1516.3 1080L1254 911Z" fill="#0c3a56" stroke="#0c3a56"></path><path d="M1727.7 918L1705.7 726L1524.3 753Z" fill="#0b2f47" stroke="#0b2f47"></path><path d="M1682.7 361L1691.7 146L1485.3 159Z" fill="#0a6899" stroke="#0a6899"></path><path d="M1920 338L1691.7 146L1682.7 361Z" fill="#0c3a56" stroke="#0c3a56"></path><path d="M1727.7 918L1524.3 753L1485.3 880Z" fill="#0d5076" stroke="#0d5076"></path><path d="M1680.7 564L1920 526L1682.7 361Z" fill="#0c5c87" stroke="#0c5c87"></path><path d="M1920 0L1695.7 0L1691.7 146Z" fill="#0674aa" stroke="#0674aa"></path><path d="M1691.7 146L1695.7 0L1476.3 0Z" fill="#071b29" stroke="#071b29"></path><path d="M1516.3 1080L1727.7 918L1485.3 880Z" fill="#0c5c87" stroke="#0c5c87"></path><path d="M1920 694L1920 526L1680.7 564Z" fill="#0081bc" stroke="#0081bc"></path><path d="M1516.3 1080L1727.7 1080L1727.7 918Z" fill="#0a6899" stroke="#0a6899"></path><path d="M1920 694L1705.7 726L1727.7 918Z" fill="#0674aa" stroke="#0674aa"></path><path d="M1920 694L1680.7 564L1705.7 726Z" fill="#0c5c87" stroke="#0c5c87"></path><path d="M1920 526L1920 338L1682.7 361Z" fill="#0c5c87" stroke="#0c5c87"></path><path d="M1920 926L1920 694L1727.7 918Z" fill="#0a6899" stroke="#0a6899"></path><path d="M1920 338L1920 164L1691.7 146Z" fill="#0081bc" stroke="#0081bc"></path><path d="M1920 164L1920 0L1691.7 146Z" fill="#0a6899" stroke="#0a6899"></path><path d="M1727.7 1080L1920 926L1727.7 918Z" fill="#092538" stroke="#092538"></path><path d="M1727.7 1080L1920 1080L1920 926Z" fill="#0c5c87" stroke="#0c5c87"></path></g></svg>