<svg id="visual" viewBox="0 0 900 600" width="900" height="600" xmlns="http://www.w3.org/2000/svg" xmlns:xlink="http://www.w3.org/1999/xlink" version="1.1"><g stroke-width="1" stroke-linejoin="bevel"><path d="M496 309L514 383L586 284Z" fill="#19435d" stroke="#19435d"></path><path d="M514 383L585 404L586 284Z" fill="#1d4e6b" stroke="#1d4e6b"></path><path d="M586 284L585 201L496 309Z" fill="#0c2435" stroke="#0c2435"></path><path d="M396 381L517 474L514 383Z" fill="#081a28" stroke="#081a28"></path><path d="M514 383L517 474L585 404Z" fill="#081a28" stroke="#081a28"></path><path d="M436 188L401 329L496 309Z" fill="#1d4e6b" stroke="#1d4e6b"></path><path d="M496 309L401 329L514 383Z" fill="#297ea6" stroke="#297ea6"></path><path d="M401 329L396 381L514 383Z" fill="#19435d" stroke="#19435d"></path><path d="M738 370L723 304L585 404Z" fill="#112e42" stroke="#112e42"></path><path d="M585 404L723 304L586 284Z" fill="#297ea6" stroke="#297ea6"></path><path d="M586 284L723 304L585 201Z" fill="#1d4e6b" stroke="#1d4e6b"></path><path d="M585 201L468 175L496 309Z" fill="#15384f" stroke="#15384f"></path><path d="M468 175L436 188L496 309Z" fill="#1d4e6b" stroke="#1d4e6b"></path><path d="M566 529L669 481L585 404Z" fill="#0c2435" stroke="#0c2435"></path><path d="M669 481L738 370L585 404Z" fill="#081a28" stroke="#081a28"></path><path d="M515 600L566 529L517 474Z" fill="#0c2435" stroke="#0c2435"></path><path d="M517 474L566 529L585 404Z" fill="#112e42" stroke="#112e42"></path><path d="M585 201L509 126L468 175Z" fill="#112e42" stroke="#112e42"></path><path d="M468 175L378 121L436 188Z" fill="#246688" stroke="#246688"></path><path d="M625 125L509 126L585 201Z" fill="#00101c" stroke="#00101c"></path><path d="M726 176L625 125L585 201Z" fill="#112e42" stroke="#112e42"></path><path d="M738 370L775 335L723 304Z" fill="#277297" stroke="#277297"></path><path d="M723 304L726 176L585 201Z" fill="#15384f" stroke="#15384f"></path><path d="M810 380L775 335L738 370Z" fill="#081a28" stroke="#081a28"></path><path d="M313 236L327 329L401 329Z" fill="#246688" stroke="#246688"></path><path d="M401 329L327 329L396 381Z" fill="#19435d" stroke="#19435d"></path><path d="M396 381L398 514L517 474Z" fill="#00101c" stroke="#00101c"></path><path d="M815 205L726 176L723 304Z" fill="#081a28" stroke="#081a28"></path><path d="M309 372L398 514L396 381Z" fill="#15384f" stroke="#15384f"></path><path d="M327 329L309 372L396 381Z" fill="#081a28" stroke="#081a28"></path><path d="M436 188L313 236L401 329Z" fill="#205a7a" stroke="#205a7a"></path><path d="M181 337L222 393L309 372Z" fill="#297ea6" stroke="#297ea6"></path><path d="M378 121L313 236L436 188Z" fill="#19435d" stroke="#19435d"></path><path d="M833 466L810 380L738 370Z" fill="#15384f" stroke="#15384f"></path><path d="M815 205L733 114L726 176Z" fill="#112e42" stroke="#112e42"></path><path d="M515 600L576 600L566 529Z" fill="#205a7a" stroke="#205a7a"></path><path d="M566 529L690 600L669 481Z" fill="#246688" stroke="#246688"></path><path d="M669 481L833 466L738 370Z" fill="#0c2435" stroke="#0c2435"></path><path d="M398 514L515 600L517 474Z" fill="#112e42" stroke="#112e42"></path><path d="M503 0L378 121L509 126Z" fill="#297ea6" stroke="#297ea6"></path><path d="M509 126L378 121L468 175Z" fill="#205a7a" stroke="#205a7a"></path><path d="M815 205L723 304L775 335Z" fill="#15384f" stroke="#15384f"></path><path d="M726 176L733 114L625 125Z" fill="#19435d" stroke="#19435d"></path><path d="M625 125L588 0L509 126Z" fill="#15384f" stroke="#15384f"></path><path d="M900 284L815 205L775 335Z" fill="#19435d" stroke="#19435d"></path><path d="M576 600L690 600L566 529Z" fill="#246688" stroke="#246688"></path><path d="M813 600L833 466L669 481Z" fill="#15384f" stroke="#15384f"></path><path d="M810 380L900 284L775 335Z" fill="#00101c" stroke="#00101c"></path><path d="M301 600L366 600L398 514Z" fill="#0c2435" stroke="#0c2435"></path><path d="M398 514L366 600L515 600Z" fill="#297ea6" stroke="#297ea6"></path><path d="M222 393L270 495L309 372Z" fill="#297ea6" stroke="#297ea6"></path><path d="M309 372L270 495L398 514Z" fill="#297ea6" stroke="#297ea6"></path><path d="M181 337L309 372L327 329Z" fill="#246688" stroke="#246688"></path><path d="M181 337L327 329L313 236Z" fill="#277297" stroke="#277297"></path><path d="M723 0L588 0L625 125Z" fill="#15384f" stroke="#15384f"></path><path d="M588 0L503 0L509 126Z" fill="#081a28" stroke="#081a28"></path><path d="M374 0L292 97L378 121Z" fill="#277297" stroke="#277297"></path><path d="M378 121L292 97L313 236Z" fill="#297ea6" stroke="#297ea6"></path><path d="M900 422L900 284L810 380Z" fill="#00101c" stroke="#00101c"></path><path d="M815 205L831 85L733 114Z" fill="#112e42" stroke="#112e42"></path><path d="M833 466L900 422L810 380Z" fill="#1d4e6b" stroke="#1d4e6b"></path><path d="M900 477L900 422L833 466Z" fill="#297ea6" stroke="#297ea6"></path><path d="M270 495L301 600L398 514Z" fill="#1d4e6b" stroke="#1d4e6b"></path><path d="M197 600L301 600L270 495Z" fill="#205a7a" stroke="#205a7a"></path><path d="M182 196L181 337L313 236Z" fill="#1d4e6b" stroke="#1d4e6b"></path><path d="M222 393L183 483L270 495Z" fill="#205a7a" stroke="#205a7a"></path><path d="M690 600L813 600L669 481Z" fill="#081a28" stroke="#081a28"></path><path d="M900 108L831 85L815 205Z" fill="#205a7a" stroke="#205a7a"></path><path d="M733 114L723 0L625 125Z" fill="#246688" stroke="#246688"></path><path d="M900 284L900 196L815 205Z" fill="#19435d" stroke="#19435d"></path><path d="M784 0L723 0L733 114Z" fill="#0c2435" stroke="#0c2435"></path><path d="M813 600L900 477L833 466Z" fill="#081a28" stroke="#081a28"></path><path d="M503 0L374 0L378 121Z" fill="#246688" stroke="#246688"></path><path d="M270 0L234 109L292 97Z" fill="#00101c" stroke="#00101c"></path><path d="M292 97L234 109L313 236Z" fill="#15384f" stroke="#15384f"></path><path d="M234 109L182 196L313 236Z" fill="#205a7a" stroke="#205a7a"></path><path d="M117 399L183 483L222 393Z" fill="#00101c" stroke="#00101c"></path><path d="M900 0L784 0L831 85Z" fill="#112e42" stroke="#112e42"></path><path d="M831 85L784 0L733 114Z" fill="#19435d" stroke="#19435d"></path><path d="M900 196L900 108L815 205Z" fill="#15384f" stroke="#15384f"></path><path d="M103 82L129 237L182 196Z" fill="#297ea6" stroke="#297ea6"></path><path d="M182 196L129 237L181 337Z" fill="#1d4e6b" stroke="#1d4e6b"></path><path d="M181 337L117 399L222 393Z" fill="#081a28" stroke="#081a28"></path><path d="M374 0L270 0L292 97Z" fill="#081a28" stroke="#081a28"></path><path d="M234 109L103 82L182 196Z" fill="#112e42" stroke="#112e42"></path><path d="M813 600L900 600L900 477Z" fill="#277297" stroke="#277297"></path><path d="M99 301L117 399L181 337Z" fill="#112e42" stroke="#112e42"></path><path d="M129 600L197 600L183 483Z" fill="#297ea6" stroke="#297ea6"></path><path d="M183 483L197 600L270 495Z" fill="#246688" stroke="#246688"></path><path d="M129 237L99 301L181 337Z" fill="#297ea6" stroke="#297ea6"></path><path d="M900 108L900 0L831 85Z" fill="#081a28" stroke="#081a28"></path><path d="M270 0L190 0L234 109Z" fill="#15384f" stroke="#15384f"></path><path d="M0 233L0 303L99 301Z" fill="#277297" stroke="#277297"></path><path d="M68 490L183 483L117 399Z" fill="#246688" stroke="#246688"></path><path d="M68 490L129 600L183 483Z" fill="#15384f" stroke="#15384f"></path><path d="M0 437L68 490L117 399Z" fill="#297ea6" stroke="#297ea6"></path><path d="M190 0L103 82L234 109Z" fill="#15384f" stroke="#15384f"></path><path d="M99 301L0 303L117 399Z" fill="#0c2435" stroke="#0c2435"></path><path d="M190 0L133 0L103 82Z" fill="#19435d" stroke="#19435d"></path><path d="M0 233L129 237L103 82Z" fill="#081a28" stroke="#081a28"></path><path d="M0 233L99 301L129 237Z" fill="#277297" stroke="#277297"></path><path d="M0 80L0 233L103 82Z" fill="#205a7a" stroke="#205a7a"></path><path d="M0 303L0 437L117 399Z" fill="#112e42" stroke="#112e42"></path><path d="M68 490L0 600L129 600Z" fill="#205a7a" stroke="#205a7a"></path><path d="M0 437L0 504L68 490Z" fill="#297ea6" stroke="#297ea6"></path><path d="M0 0L0 80L103 82Z" fill="#112e42" stroke="#112e42"></path><path d="M0 504L0 600L68 490Z" fill="#112e42" stroke="#112e42"></path><path d="M133 0L0 0L103 82Z" fill="#081a28" stroke="#081a28"></path></g></svg>