<svg id="visual" viewBox="0 0 900 600" width="900" height="600" xmlns="http://www.w3.org/2000/svg" xmlns:xlink="http://www.w3.org/1999/xlink" version="1.1"><rect x="0" y="0" width="900" height="600" fill="#001122"></rect><path d="M0 393L21.5 386.2C43 379.3 86 365.7 128.8 360C171.7 354.3 214.3 356.7 257.2 369.8C300 383 343 407 385.8 408.7C428.7 410.3 471.3 389.7 514.2 376.7C557 363.7 600 358.3 642.8 361.5C685.7 364.7 728.3 376.3 771.2 378.7C814 381 857 374 878.5 370.5L900 367L900 601L878.5 601C857 601 814 601 771.2 601C728.3 601 685.7 601 642.8 601C600 601 557 601 514.2 601C471.3 601 428.7 601 385.8 601C343 601 300 601 257.2 601C214.3 601 171.7 601 128.8 601C86 601 43 601 21.5 601L0 601Z" fill="#b1b1b1"></path><path d="M0 410L21.5 410.3C43 410.7 86 411.3 128.8 410C171.7 408.7 214.3 405.3 257.2 402.8C300 400.3 343 398.7 385.8 410C428.7 421.3 471.3 445.7 514.2 450.7C557 455.7 600 441.3 642.8 433.2C685.7 425 728.3 423 771.2 417.5C814 412 857 403 878.5 398.5L900 394L900 601L878.5 601C857 601 814 601 771.2 601C728.3 601 685.7 601 642.8 601C600 601 557 601 514.2 601C471.3 601 428.7 601 385.8 601C343 601 300 601 257.2 601C214.3 601 171.7 601 128.8 601C86 601 43 601 21.5 601L0 601Z" fill="#c4c4c4"></path><path d="M0 496L21.5 493C43 490 86 484 128.8 476.7C171.7 469.3 214.3 460.7 257.2 461.2C300 461.7 343 471.3 385.8 471.2C428.7 471 471.3 461 514.2 459.5C557 458 600 465 642.8 468.5C685.7 472 728.3 472 771.2 475.5C814 479 857 486 878.5 489.5L900 493L900 601L878.5 601C857 601 814 601 771.2 601C728.3 601 685.7 601 642.8 601C600 601 557 601 514.2 601C471.3 601 428.7 601 385.8 601C343 601 300 601 257.2 601C214.3 601 171.7 601 128.8 601C86 601 43 601 21.5 601L0 601Z" fill="#d7d7d7"></path><path d="M0 520L21.5 516C43 512 86 504 128.8 498.7C171.7 493.3 214.3 490.7 257.2 492.2C300 493.7 343 499.3 385.8 506.8C428.7 514.3 471.3 523.7 514.2 523.7C557 523.7 600 514.3 642.8 509.2C685.7 504 728.3 503 771.2 506C814 509 857 516 878.5 519.5L900 523L900 601L878.5 601C857 601 814 601 771.2 601C728.3 601 685.7 601 642.8 601C600 601 557 601 514.2 601C471.3 601 428.7 601 385.8 601C343 601 300 601 257.2 601C214.3 601 171.7 601 128.8 601C86 601 43 601 21.5 601L0 601Z" fill="#ebebeb"></path><path d="M0 562L21.5 562.2C43 562.3 86 562.7 128.8 564.3C171.7 566 214.3 569 257.2 565.8C300 562.7 343 553.3 385.8 545.8C428.7 538.3 471.3 532.7 514.2 532.3C557 532 600 537 642.8 544.8C685.7 552.7 728.3 563.3 771.2 563.3C814 563.3 857 552.7 878.5 547.3L900 542L900 601L878.5 601C857 601 814 601 771.2 601C728.3 601 685.7 601 642.8 601C600 601 557 601 514.2 601C471.3 601 428.7 601 385.8 601C343 601 300 601 257.2 601C214.3 601 171.7 601 128.8 601C86 601 43 601 21.5 601L0 601Z" fill="#ffffff"></path></svg>