<svg id="visual" viewBox="0 0 900 600" width="900" height="600" xmlns="http://www.w3.org/2000/svg" xmlns:xlink="http://www.w3.org/1999/xlink" version="1.1"><rect x="0" y="0" width="900" height="600" fill="#001220"></rect><path d="M0 357L21.5 356C43 355 86 353 128.8 366.7C171.7 380.3 214.3 409.7 257.2 420.7C300 431.7 343 424.3 385.8 410.3C428.7 396.3 471.3 375.7 514.2 366.8C557 358 600 361 642.8 374.2C685.7 387.3 728.3 410.7 771.2 408.8C814 407 857 380 878.5 366.5L900 353L900 601L878.5 601C857 601 814 601 771.2 601C728.3 601 685.7 601 642.8 601C600 601 557 601 514.2 601C471.3 601 428.7 601 385.8 601C343 601 300 601 257.2 601C214.3 601 171.7 601 128.8 601C86 601 43 601 21.5 601L0 601Z" fill="#fa7268"></path><path d="M0 469L21.5 456.8C43 444.7 86 420.3 128.8 419.3C171.7 418.3 214.3 440.7 257.2 443.2C300 445.7 343 428.3 385.8 422.3C428.7 416.3 471.3 421.7 514.2 427.7C557 433.7 600 440.3 642.8 447.8C685.7 455.3 728.3 463.7 771.2 469.2C814 474.7 857 477.3 878.5 478.7L900 480L900 601L878.5 601C857 601 814 601 771.2 601C728.3 601 685.7 601 642.8 601C600 601 557 601 514.2 601C471.3 601 428.7 601 385.8 601C343 601 300 601 257.2 601C214.3 601 171.7 601 128.8 601C86 601 43 601 21.5 601L0 601Z" fill="#ef5f67"></path><path d="M0 461L21.5 460.5C43 460 86 459 128.8 464C171.7 469 214.3 480 257.2 482.7C300 485.3 343 479.7 385.8 470.8C428.7 462 471.3 450 514.2 451.5C557 453 600 468 642.8 469C685.7 470 728.3 457 771.2 452.8C814 448.7 857 453.3 878.5 455.7L900 458L900 601L878.5 601C857 601 814 601 771.2 601C728.3 601 685.7 601 642.8 601C600 601 557 601 514.2 601C471.3 601 428.7 601 385.8 601C343 601 300 601 257.2 601C214.3 601 171.7 601 128.8 601C86 601 43 601 21.5 601L0 601Z" fill="#e34c67"></path><path d="M0 514L21.5 515.8C43 517.7 86 521.3 128.8 520.5C171.7 519.7 214.3 514.3 257.2 507.8C300 501.3 343 493.7 385.8 494C428.7 494.3 471.3 502.7 514.2 506.5C557 510.3 600 509.7 642.8 505.2C685.7 500.7 728.3 492.3 771.2 489.5C814 486.7 857 489.3 878.5 490.7L900 492L900 601L878.5 601C857 601 814 601 771.2 601C728.3 601 685.7 601 642.8 601C600 601 557 601 514.2 601C471.3 601 428.7 601 385.8 601C343 601 300 601 257.2 601C214.3 601 171.7 601 128.8 601C86 601 43 601 21.5 601L0 601Z" fill="#d53867"></path><path d="M0 557L21.5 552.5C43 548 86 539 128.8 533.8C171.7 528.7 214.3 527.3 257.2 530C300 532.7 343 539.3 385.8 543.8C428.7 548.3 471.3 550.7 514.2 549.7C557 548.7 600 544.3 642.8 546.2C685.7 548 728.3 556 771.2 560.8C814 565.7 857 567.3 878.5 568.2L900 569L900 601L878.5 601C857 601 814 601 771.2 601C728.3 601 685.7 601 642.8 601C600 601 557 601 514.2 601C471.3 601 428.7 601 385.8 601C343 601 300 601 257.2 601C214.3 601 171.7 601 128.8 601C86 601 43 601 21.5 601L0 601Z" fill="#c62368"></path></svg>