<svg id="visual" viewBox="0 0 900 600" width="900" height="600" xmlns="http://www.w3.org/2000/svg" xmlns:xlink="http://www.w3.org/1999/xlink" version="1.1"><g stroke-width="1" stroke-linejoin="bevel"><path d="M420 280L380 234L310 327Z" fill="#8a2703" stroke="#8a2703"></path><path d="M380 234L322 193L310 327Z" fill="#8a2703" stroke="#8a2703"></path><path d="M403 433L498 324L420 280Z" fill="#cc550b" stroke="#cc550b"></path><path d="M420 280L505 219L380 234Z" fill="#b64509" stroke="#b64509"></path><path d="M310 327L403 433L420 280Z" fill="#f7770f" stroke="#f7770f"></path><path d="M163 281L224 360L310 327Z" fill="#8a2703" stroke="#8a2703"></path><path d="M310 327L260 435L403 433Z" fill="#a03606" stroke="#a03606"></path><path d="M498 324L505 219L420 280Z" fill="#ec6e0e" stroke="#ec6e0e"></path><path d="M380 234L431 110L322 193Z" fill="#ec6e0e" stroke="#ec6e0e"></path><path d="M224 360L260 435L310 327Z" fill="#b64509" stroke="#b64509"></path><path d="M403 433L515 381L498 324Z" fill="#f7770f" stroke="#f7770f"></path><path d="M498 324L576 266L505 219Z" fill="#c14d0a" stroke="#c14d0a"></path><path d="M260 435L363 482L403 433Z" fill="#952e04" stroke="#952e04"></path><path d="M403 433L462 485L515 381Z" fill="#e1660e" stroke="#e1660e"></path><path d="M505 219L431 110L380 234Z" fill="#8a2703" stroke="#8a2703"></path><path d="M276 91L209 165L322 193Z" fill="#cc550b" stroke="#cc550b"></path><path d="M322 193L163 281L310 327Z" fill="#e1660e" stroke="#e1660e"></path><path d="M209 165L163 281L322 193Z" fill="#d75d0d" stroke="#d75d0d"></path><path d="M224 360L221 509L260 435Z" fill="#d75d0d" stroke="#d75d0d"></path><path d="M260 435L326 497L363 482Z" fill="#d75d0d" stroke="#d75d0d"></path><path d="M505 219L469 110L431 110Z" fill="#952e04" stroke="#952e04"></path><path d="M515 381L576 266L498 324Z" fill="#cc550b" stroke="#cc550b"></path><path d="M505 219L585 174L469 110Z" fill="#c14d0a" stroke="#c14d0a"></path><path d="M431 110L276 91L322 193Z" fill="#d75d0d" stroke="#d75d0d"></path><path d="M318 0L276 91L431 110Z" fill="#ab3d07" stroke="#ab3d07"></path><path d="M363 482L462 485L403 433Z" fill="#c14d0a" stroke="#c14d0a"></path><path d="M515 381L620 383L576 266Z" fill="#cc550b" stroke="#cc550b"></path><path d="M398 600L462 485L363 482Z" fill="#c14d0a" stroke="#c14d0a"></path><path d="M576 266L585 174L505 219Z" fill="#952e04" stroke="#952e04"></path><path d="M260 435L221 509L326 497Z" fill="#ec6e0e" stroke="#ec6e0e"></path><path d="M326 497L398 600L363 482Z" fill="#f7770f" stroke="#f7770f"></path><path d="M80 375L221 509L224 360Z" fill="#a03606" stroke="#a03606"></path><path d="M276 91L190 94L209 165Z" fill="#cc550b" stroke="#cc550b"></path><path d="M209 165L91 198L163 281Z" fill="#e1660e" stroke="#e1660e"></path><path d="M564 534L620 383L515 381Z" fill="#952e04" stroke="#952e04"></path><path d="M576 266L680 210L585 174Z" fill="#e1660e" stroke="#e1660e"></path><path d="M91 198L84 338L163 281Z" fill="#952e04" stroke="#952e04"></path><path d="M163 281L84 338L224 360Z" fill="#c14d0a" stroke="#c14d0a"></path><path d="M190 94L91 198L209 165Z" fill="#ec6e0e" stroke="#ec6e0e"></path><path d="M0 314L80 375L84 338Z" fill="#ec6e0e" stroke="#ec6e0e"></path><path d="M84 338L80 375L224 360Z" fill="#ec6e0e" stroke="#ec6e0e"></path><path d="M680 210L602 126L585 174Z" fill="#cc550b" stroke="#cc550b"></path><path d="M585 174L602 126L469 110Z" fill="#8a2703" stroke="#8a2703"></path><path d="M276 91L180 0L190 94Z" fill="#b64509" stroke="#b64509"></path><path d="M406 0L318 0L431 110Z" fill="#952e04" stroke="#952e04"></path><path d="M406 0L431 110L481 0Z" fill="#c14d0a" stroke="#c14d0a"></path><path d="M481 0L431 110L469 110Z" fill="#e1660e" stroke="#e1660e"></path><path d="M287 600L398 600L326 497Z" fill="#ec6e0e" stroke="#ec6e0e"></path><path d="M462 485L564 534L515 381Z" fill="#a03606" stroke="#a03606"></path><path d="M563 0L481 0L469 110Z" fill="#f7770f" stroke="#f7770f"></path><path d="M474 600L564 534L462 485Z" fill="#e1660e" stroke="#e1660e"></path><path d="M178 600L287 600L221 509Z" fill="#ec6e0e" stroke="#ec6e0e"></path><path d="M221 509L287 600L326 497Z" fill="#ab3d07" stroke="#ab3d07"></path><path d="M180 0L137 62L190 94Z" fill="#e1660e" stroke="#e1660e"></path><path d="M190 94L137 62L91 198Z" fill="#8a2703" stroke="#8a2703"></path><path d="M564 534L663 400L620 383Z" fill="#952e04" stroke="#952e04"></path><path d="M728 307L680 210L576 266Z" fill="#b64509" stroke="#b64509"></path><path d="M398 600L474 600L462 485Z" fill="#8a2703" stroke="#8a2703"></path><path d="M728 307L576 266L620 383Z" fill="#e1660e" stroke="#e1660e"></path><path d="M318 0L180 0L276 91Z" fill="#cc550b" stroke="#cc550b"></path><path d="M80 375L99 520L221 509Z" fill="#c14d0a" stroke="#c14d0a"></path><path d="M679 0L563 0L602 126Z" fill="#ec6e0e" stroke="#ec6e0e"></path><path d="M602 126L563 0L469 110Z" fill="#b64509" stroke="#b64509"></path><path d="M99 520L178 600L221 509Z" fill="#d75d0d" stroke="#d75d0d"></path><path d="M91 198L0 314L84 338Z" fill="#952e04" stroke="#952e04"></path><path d="M80 375L0 468L99 520Z" fill="#cc550b" stroke="#cc550b"></path><path d="M0 205L0 314L91 198Z" fill="#d75d0d" stroke="#d75d0d"></path><path d="M663 400L728 307L620 383Z" fill="#e1660e" stroke="#e1660e"></path><path d="M0 113L91 198L137 62Z" fill="#a03606" stroke="#a03606"></path><path d="M0 113L0 205L91 198Z" fill="#c14d0a" stroke="#c14d0a"></path><path d="M0 314L0 397L80 375Z" fill="#952e04" stroke="#952e04"></path><path d="M180 0L114 0L137 62Z" fill="#f7770f" stroke="#f7770f"></path><path d="M564 534L698 517L663 400Z" fill="#f7770f" stroke="#f7770f"></path><path d="M663 400L792 364L728 307Z" fill="#ec6e0e" stroke="#ec6e0e"></path><path d="M474 600L597 600L564 534Z" fill="#e1660e" stroke="#e1660e"></path><path d="M0 397L0 468L80 375Z" fill="#952e04" stroke="#952e04"></path><path d="M99 520L85 600L178 600Z" fill="#b64509" stroke="#b64509"></path><path d="M0 0L0 113L137 62Z" fill="#a03606" stroke="#a03606"></path><path d="M680 210L726 117L602 126Z" fill="#a03606" stroke="#a03606"></path><path d="M776 232L726 117L680 210Z" fill="#ec6e0e" stroke="#ec6e0e"></path><path d="M597 600L698 517L564 534Z" fill="#f7770f" stroke="#f7770f"></path><path d="M0 600L85 600L99 520Z" fill="#8a2703" stroke="#8a2703"></path><path d="M801 293L776 232L728 307Z" fill="#f7770f" stroke="#f7770f"></path><path d="M728 307L776 232L680 210Z" fill="#e1660e" stroke="#e1660e"></path><path d="M803 0L679 0L726 117Z" fill="#b64509" stroke="#b64509"></path><path d="M726 117L679 0L602 126Z" fill="#ab3d07" stroke="#ab3d07"></path><path d="M779 516L792 364L663 400Z" fill="#a03606" stroke="#a03606"></path><path d="M792 364L801 293L728 307Z" fill="#952e04" stroke="#952e04"></path><path d="M597 600L677 600L698 517Z" fill="#c14d0a" stroke="#c14d0a"></path><path d="M698 517L779 516L663 400Z" fill="#8a2703" stroke="#8a2703"></path><path d="M114 0L0 0L137 62Z" fill="#952e04" stroke="#952e04"></path><path d="M0 468L0 600L99 520Z" fill="#d75d0d" stroke="#d75d0d"></path><path d="M764 600L779 516L698 517Z" fill="#f7770f" stroke="#f7770f"></path><path d="M792 364L900 283L801 293Z" fill="#8a2703" stroke="#8a2703"></path><path d="M776 232L820 90L726 117Z" fill="#c14d0a" stroke="#c14d0a"></path><path d="M900 166L820 90L776 232Z" fill="#ec6e0e" stroke="#ec6e0e"></path><path d="M677 600L764 600L698 517Z" fill="#952e04" stroke="#952e04"></path><path d="M820 90L803 0L726 117Z" fill="#c14d0a" stroke="#c14d0a"></path><path d="M900 430L900 283L792 364Z" fill="#e1660e" stroke="#e1660e"></path><path d="M801 293L900 283L776 232Z" fill="#8a2703" stroke="#8a2703"></path><path d="M820 90L900 0L803 0Z" fill="#e1660e" stroke="#e1660e"></path><path d="M900 430L792 364L779 516Z" fill="#cc550b" stroke="#cc550b"></path><path d="M900 283L900 166L776 232Z" fill="#d75d0d" stroke="#d75d0d"></path><path d="M900 510L900 430L779 516Z" fill="#c14d0a" stroke="#c14d0a"></path><path d="M900 166L900 111L820 90Z" fill="#c14d0a" stroke="#c14d0a"></path><path d="M900 600L900 510L779 516Z" fill="#d75d0d" stroke="#d75d0d"></path><path d="M900 111L900 0L820 90Z" fill="#8a2703" stroke="#8a2703"></path><path d="M764 600L900 600L779 516Z" fill="#952e04" stroke="#952e04"></path></g></svg>