<svg id="visual" viewBox="0 0 1920 1080" width="1920" height="1080" xmlns="http://www.w3.org/2000/svg" xmlns:xlink="http://www.w3.org/1999/xlink" version="1.1"><rect x="0" y="0" width="1920" height="1080" fill="#002233"></rect>
<path d="M0 771L45.7 779.3C91.3 787.7 182.7 804.3 274.2 820.2C365.7 836 457.3 851 548.8 861.7C640.3 872.3 731.7 878.7 823 880.7C914.3 882.7 1005.7 880.3 1097 886.3C1188.3 892.3 1279.7 906.7 1371.2 896.7C1462.7 886.7 1554.3 852.3 1645.8 831.2C1737.3 810 1828.7 802 1874.3 798L1920 794L1920 1081L1874.3 1081C1828.7 1081 1737.3 1081 1645.8 1081C1554.3 1081 1462.7 1081 1371.2 1081C1279.7 1081 1188.3 1081 1097 1081C1005.7 1081 914.3 1081 823 1081C731.7 1081 640.3 1081 548.8 1081C457.3 1081 365.7 1081 274.2 1081C182.7 1081 91.3 1081 45.7 1081L0 1081Z" fill="#ffffff" stroke-linecap="round" stroke-linejoin="miter"></path></svg>