<svg id="visual" viewBox="0 0 1280 720" width="1280" height="720" xmlns="http://www.w3.org/2000/svg" xmlns:xlink="http://www.w3.org/1999/xlink" version="1.1"><rect x="0" y="0" width="1280" height="720" fill="#002233"></rect><path d="M0 619L30.5 604.2C61 589.3 122 559.7 183 533C244 506.3 305 482.7 366 471C427 459.3 488 459.7 548.8 487.7C609.7 515.7 670.3 571.3 731.2 584.3C792 597.3 853 567.7 914 553.2C975 538.7 1036 539.3 1097 549.5C1158 559.7 1219 579.3 1249.5 589.2L1280 599L1280 721L1249.5 721C1219 721 1158 721 1097 721C1036 721 975 721 914 721C853 721 792 721 731.2 721C670.3 721 609.7 721 548.8 721C488 721 427 721 366 721C305 721 244 721 183 721C122 721 61 721 30.5 721L0 721Z" fill="#FFFFFF" stroke-linecap="round" stroke-linejoin="miter"></path></svg>