<svg id="visual" viewBox="0 0 900 600" width="900" height="600" xmlns="http://www.w3.org/2000/svg" xmlns:xlink="http://www.w3.org/1999/xlink" version="1.1"><rect x="0" y="0" width="900" height="600" fill="#001220"></rect><path d="M0 421L21.5 423.8C43 426.7 86 432.3 128.8 431.8C171.7 431.3 214.3 424.7 257.2 425C300 425.3 343 432.7 385.8 441.8C428.7 451 471.3 462 514.2 459C557 456 600 439 642.8 430.2C685.7 421.3 728.3 420.7 771.2 424C814 427.3 857 434.7 878.5 438.3L900 442L900 601L878.5 601C857 601 814 601 771.2 601C728.3 601 685.7 601 642.8 601C600 601 557 601 514.2 601C471.3 601 428.7 601 385.8 601C343 601 300 601 257.2 601C214.3 601 171.7 601 128.8 601C86 601 43 601 21.5 601L0 601Z" fill="#ffffff"></path><path d="M0 461L21.5 464C43 467 86 473 128.8 478C171.7 483 214.3 487 257.2 487.8C300 488.7 343 486.3 385.8 477.5C428.7 468.7 471.3 453.3 514.2 445.3C557 437.3 600 436.7 642.8 436.5C685.7 436.3 728.3 436.7 771.2 447.8C814 459 857 481 878.5 492L900 503L900 601L878.5 601C857 601 814 601 771.2 601C728.3 601 685.7 601 642.8 601C600 601 557 601 514.2 601C471.3 601 428.7 601 385.8 601C343 601 300 601 257.2 601C214.3 601 171.7 601 128.8 601C86 601 43 601 21.5 601L0 601Z" fill="#e0dfdb"></path><path d="M0 492L21.5 495.7C43 499.3 86 506.7 128.8 505.8C171.7 505 214.3 496 257.2 493.8C300 491.7 343 496.3 385.8 501.5C428.7 506.7 471.3 512.3 514.2 514.7C557 517 600 516 642.8 512.7C685.7 509.3 728.3 503.7 771.2 503.8C814 504 857 510 878.5 513L900 516L900 601L878.5 601C857 601 814 601 771.2 601C728.3 601 685.7 601 642.8 601C600 601 557 601 514.2 601C471.3 601 428.7 601 385.8 601C343 601 300 601 257.2 601C214.3 601 171.7 601 128.8 601C86 601 43 601 21.5 601L0 601Z" fill="#c2bfb9"></path><path d="M0 506L21.5 509.7C43 513.3 86 520.7 128.8 526.7C171.7 532.7 214.3 537.3 257.2 538C300 538.7 343 535.3 385.8 534.7C428.7 534 471.3 536 514.2 533.7C557 531.3 600 524.7 642.8 526.3C685.7 528 728.3 538 771.2 539.8C814 541.7 857 535.3 878.5 532.2L900 529L900 601L878.5 601C857 601 814 601 771.2 601C728.3 601 685.7 601 642.8 601C600 601 557 601 514.2 601C471.3 601 428.7 601 385.8 601C343 601 300 601 257.2 601C214.3 601 171.7 601 128.8 601C86 601 43 601 21.5 601L0 601Z" fill="#a5a097"></path><path d="M0 559L21.5 561.3C43 563.7 86 568.3 128.8 571.5C171.7 574.7 214.3 576.3 257.2 573.3C300 570.3 343 562.7 385.8 560.2C428.7 557.7 471.3 560.3 514.2 558C557 555.7 600 548.3 642.8 549.3C685.7 550.3 728.3 559.7 771.2 560.2C814 560.7 857 552.3 878.5 548.2L900 544L900 601L878.5 601C857 601 814 601 771.2 601C728.3 601 685.7 601 642.8 601C600 601 557 601 514.2 601C471.3 601 428.7 601 385.8 601C343 601 300 601 257.2 601C214.3 601 171.7 601 128.8 601C86 601 43 601 21.5 601L0 601Z" fill="#888277"></path></svg>