<svg id="visual" viewBox="0 0 1920 1080" width="1920" height="1080" xmlns="http://www.w3.org/2000/svg" xmlns:xlink="http://www.w3.org/1999/xlink" version="1.1"><rect x="0" y="0" width="1920" height="1080" fill="#002233"></rect><path id="bg1" d="M0 915L45.7 917.2C91.3 919.3 182.7 923.7 274.2 917.8C365.7 912 457.3 896 548.8 875.2C640.3 854.3 731.7 828.7 823 799.5C914.3 770.3 1005.7 737.7 1097 747.7C1188.3 757.7 1279.7 810.3 1371.2 816.7C1462.7 823 1554.3 783 1645.8 770.5C1737.3 758 1828.7 773 1874.3 780.5L1920 788L1920 1081L1874.3 1081C1828.7 1081 1737.3 1081 1645.8 1081C1554.3 1081 1462.7 1081 1371.2 1081C1279.7 1081 1188.3 1081 1097 1081C1005.7 1081 914.3 1081 823 1081C731.7 1081 640.3 1081 548.8 1081C457.3 1081 365.7 1081 274.2 1081C182.7 1081 91.3 1081 45.7 1081L0 1081Z" fill="#FFFFFF" stroke-linecap="round" stroke-linejoin="miter"></path>

</svg>